<?xml version="1.0" encoding="utf-8"?>
<!-- Generator: Adobe Illustrator 18.0.0, SVG Export Plug-In . SVG Version: 6.00 Build 0)  -->
<!DOCTYPE svg PUBLIC "-//W3C//DTD SVG 1.1//EN" "http://www.w3.org/Graphics/SVG/1.1/DTD/svg11.dtd">
<svg version="1.1" xmlns="http://www.w3.org/2000/svg" xmlns:xlink="http://www.w3.org/1999/xlink" x="0px" y="0px"
	 viewBox="0 0 389.5 389.3" enable-background="new 0 0 389.5 389.3" xml:space="preserve">
<g id="開放個人經驗平台">
	<g>
		<path d="M61.9,296H51.1v19.9h-3.3v-32h14.2V296z M58.7,286.6h-7.7v2.2h7.7V286.6z M51.1,293.3h7.7V291h-7.7V293.3z M68.4,304.4
			h5.1v2.8h-5.1v7.7h-3v-7.7h-4.2c-0.1,3.3-2,6-5.7,8l-2.4-2.3c0.3-0.2,0.6-0.3,0.8-0.4c2.5-1.3,3.9-3.1,4.2-5.3h-5.1v-2.8h5.4v-3.6
			H54V298h18.5v2.8h-4V304.4z M65.4,300.8h-4.1v3.6h4.1V300.8z M74.3,312.4c0.8,0,1.2-0.4,1.2-1.1V296h-11V284h14.3v27.3v0.9
			c0,2.2-1.1,3.3-3.4,3.3h-3.9l-0.8-3.2L74.3,312.4z M67.7,288.8h7.8v-2.2h-7.8V288.8z M75.6,291h-7.8v2.3h7.8V291z"/>
		<path d="M97,308.9c0,1.4-0.2,2.6-0.5,3.5c-0.3,0.9-0.8,1.6-1.5,2c-0.7,0.4-2,0.6-4.1,0.6c-0.8,0-1.3,0-1.4,0l-0.8-3.2
			c0.9,0,1.8,0.1,2.8,0.1c0.9,0,1.5-0.3,1.7-1c0.3-0.7,0.5-1.9,0.6-3.7c0.1-1.8,0.2-3.8,0.2-5.9v-0.5c0-1,0-1.5,0-1.6h-4
			c-0.2,6-1.7,11.5-4.5,16.6l-2.6-2.5c2.5-5.1,3.8-11,3.8-17.6v-3.7h-3.4v-3.1h7.3c-0.8-0.9-2.2-2.3-4.3-4l2.5-2
			c0.4,0.4,0.8,0.7,1.1,0.9c1.3,1.1,2.4,2,3.2,2.8l0.7,0.7l-1.7,1.5h6.5v3.1h-8.7v4.2h7.3v1.7c2.1-3.4,4-8.4,5.5-14.9l3.2,0.8
			l-0.5,2.3l-0.6,2.4h10.9v3.2H113c-0.6,7.2-1.9,12.5-4,15.8c1.4,1.9,3.7,3.8,6.9,5.8l-2.3,2.8c-2.9-2-5.2-4-6.8-6l-1,1
			c-2,1.9-4.5,3.6-7.4,5l-1.9-2.9c3.3-1.3,6.1-3.2,8.3-5.8c-1.6-3-2.8-5.9-3.5-8.7c-0.1-0.3-0.2-0.7-0.3-1.2l-0.9,1.9
			c-0.3,0.6-0.8,1.3-1.3,1.9l-1.8-3.1v2.5v1c0,2.5,0,4.1-0.1,4.8C97,307.6,97,308.5,97,308.9z M103.7,291.5l-0.2,0.6l-0.2,0.7
			c0.9,4.2,2.1,8,3.7,11.2c1.3-3.3,2.2-7.1,2.6-11.4c0-0.3,0.1-0.6,0.1-1.1H103.7z"/>
		<path d="M118.8,296.5c2.5-4,4.3-8.5,5.5-13.6l3.1,1l-0.8,3.2c-0.3,1.2-0.6,2-0.7,2.3v26.6h-3.3v-19l-1.1,2.1
			c-0.4,0.7-0.9,1.4-1.3,1.9L118.8,296.5z M128.5,284H151v32h-3.2v-1.9h-16.1v1.9h-3.2V284z M147.8,287.1h-16.1v23.7h16.1V287.1z
			 M141.3,288.2v3.3h5.5v3h-5.5v3.3h3.6v10.5h-10.5v-10.5h3.6v-3.3h-5.4v-3h5.4v-3.3H141.3z M141.9,300.7h-4.6v4.9h4.6V300.7z"/>
		<path d="M173.1,282.8v4c0,1.8,0.6,4.4,1.8,8c1.2,3.6,2.7,6.6,4.4,9.1c1.4,2,3.2,3.9,5.2,5.8c2,1.9,3.2,2.8,3.4,2.8l-2.5,3.2
			c-0.4,0-1.8-1.3-4.4-3.8c-2.6-2.6-4.5-5-5.9-7.4c-1.3-2.4-2.5-5.3-3.5-8.6c-1.1,4-2.3,7.1-3.6,9.4c-1.3,2.3-3.3,4.6-6,7
			c-2.7,2.3-4.3,3.5-4.8,3.5l-2.4-3.2c0.3,0,1.5-0.8,3.5-2.3c2-1.6,3.7-3.3,5.2-5.3c1.8-2.4,3.2-5.2,4.2-8.4c1-3.2,1.5-6.3,1.5-9.3
			v-4.5H173.1z"/>
		<path d="M195.2,306.8c-0.1,3.5-0.6,6.5-1.5,8.9l-2.8-0.9c0.8-2,1.3-4.3,1.6-6.9c0-0.3,0.1-0.8,0.2-1.3L195.2,306.8z M203.9,289.1
			c-2.1,5-4.5,9.3-7.2,12.7c0.2,0,0.7,0,1.4-0.1c0.7,0,1.7-0.2,3.1-0.5l-0.4-1.3l-0.6-1.4l2.5-0.7c0.7,1.5,1.4,3.4,2.1,5.9
			c0,0.2,0.1,0.4,0.2,0.6l-2.8,0.8l-0.2-0.7l-0.1-0.6c-2,0.3-3.5,0.6-4.7,0.7l-5.2,0.5l-0.8-3h1.1l0.9,0c2.2-2.6,3.6-4.8,4.5-6.6
			l-2.8,0.3l-3.2,0.2l-0.5-2.9h1.1l0.8,0c1.9-3.2,3.3-6.5,4.3-9.8l3.2,0.8c-1.2,3.2-2.7,6.2-4.4,8.9l1.5-0.1l1.3-0.1
			c0.6-1.1,1.3-2.5,1.9-4.2c0-0.1,0.1-0.2,0.1-0.4L203.9,289.1z M196.4,314.7c0.1-1.1,0.1-2.5,0.1-4.1c0-1.2-0.1-2.5-0.3-3.9
			l2.5-0.2c0.1,0.5,0.1,0.9,0.2,1.2c0.3,2,0.5,4.3,0.5,6.8L196.4,314.7z M201.7,313.7l-0.7-3.9c-0.2-1-0.5-2.1-0.9-3.5l2.3-0.5
			c0.6,1.8,1.2,3.8,1.7,6.1c0.1,0.3,0.2,0.6,0.3,1L201.7,313.7z M204,295.2c1.4-2.2,2.6-4.5,3.7-6.9l2.8,1.3c-0.2,0.4-0.3,0.7-0.5,1
			c-0.8,1.7-1.6,3.1-2.4,4.2c-0.1,0.1-0.2,0.2-0.3,0.4l1.5,2.3c0.5,0.7,1.1,1.9,1.9,3.4l-2.9,1.5C206.7,299.6,205.3,297.2,204,295.2
			z M223.2,284.6v3h-18.8v-3H223.2z M205,314.5v-3h7.2v-5.7h-6.9v-3h17.4v3h-7.2v5.7h8.5v3H205z M210.3,295.2
			c1.4-2.2,2.4-4.1,3.1-5.8c0.1-0.3,0.3-0.7,0.5-1.2l2.8,1.4c-0.2,0.3-0.3,0.6-0.4,0.9c-0.6,1.3-1.3,2.7-2.3,4.2
			c-0.1,0.1-0.2,0.3-0.3,0.4l1.5,2.3c0.3,0.5,0.7,1.2,1.3,2.1c0.1,0.3,0.3,0.6,0.6,1l-2.9,1.6c-0.3-0.5-0.5-0.9-0.6-1.2
			c-0.4-0.8-0.9-1.6-1.3-2.4L210.3,295.2z M216.6,295.2c1.6-2.3,2.8-4.5,3.8-6.8l2.7,1.5c-0.2,0.3-0.3,0.6-0.4,0.8
			c-1.1,2.1-2,3.6-2.7,4.6l1.6,2.2c0.3,0.5,0.8,1.2,1.3,2.1c0.1,0.3,0.3,0.6,0.6,1l-2.7,1.7c-0.3-0.5-0.5-0.9-0.6-1.2
			c-0.5-1-0.9-1.7-1.3-2.3L216.6,295.2z"/>
		<path d="M229.4,304v5.3c0,1.6-0.2,3.2-0.5,4.8l-1.9-0.3c0.3-1.7,0.5-3.2,0.5-4.6c0-2,0-3.8,0.1-5.2L229.4,304z M240.2,290.8v1.2
			h-3.1v2.6h3.1v2.3h-3.1v3h3.6l-0.3,10.8c0,1.4-0.2,2.5-0.5,3.2c-0.3,0.7-0.8,1.2-1.4,1.4c-0.6,0.3-2.1,0.4-4.4,0.5l-0.7-3
			c0.9,0,1.9,0.1,3.2,0.1c0.7,0,1.1-0.6,1.1-1.9c0-3.3,0.1-6.1,0.2-8.3h-9.8v-18.4h13v2.8h-4.1v2.7h3.1v0.8c3.2-1.5,6-4,8.3-7.5h2.9
			c2.5,3.3,5.4,5.7,8.5,7.4l-1.3,3.1c-0.9-0.4-2.1-1.2-3.4-2.2v2h-10.4v-1.9l-1.7,1.3l-1.6,1L240.2,290.8z M230.4,313.1
			c0.1-1.2,0.2-2.6,0.2-4.1c0-1.9,0-3.6-0.1-4.9l1.5-0.1l0.2,4.7l0.1,4.4L230.4,313.1z M231,289.7h3.5V287H231V289.7z M234.5,294.5
			V292H231v2.6H234.5z M234.5,299.8v-3H231v3H234.5z M233.5,310.9c0-0.5,0-1.2-0.1-1.9c0-0.8-0.2-2.3-0.5-4.5c0-0.1,0-0.3-0.1-0.5
			l1.4-0.2l0.4,3.5l0.4,3.4L233.5,310.9z M236.2,309.5c0-0.7-0.2-1.7-0.4-3l-0.5-2.9l1.2-0.3c0.1,0.3,0.1,0.6,0.2,0.8
			c0.2,0.8,0.3,1.4,0.4,1.8l0.5,3L236.2,309.5z M244.4,313.3l-1.7,2.6l-2.1-2.6c2-2.3,3.5-5,4.5-8.2l2.8,0.8l-0.4,1.1l-0.4,0.9
			l1.5,1.2c0.4,0.3,0.9,0.7,1.3,1.1c0,0,0.1,0.1,0.2,0.2l-1.8,2.5l-1.2-1.3c-0.3-0.3-0.7-0.7-1.2-1c-0.1,0.3-0.3,0.5-0.4,0.7
			C245.5,311.7,245,312.4,244.4,313.3z M242,294.8h7.6v9.9H242V294.8z M247,297.4h-2.4v4.6h2.4V297.4z M254.3,290.3
			c-0.9-0.7-1.6-1.4-2.2-2l-2-2.3c-1.2,1.7-2.6,3.2-4.1,4.4H254.3z M251.1,315.9l-2.2-2.3c2.1-2.2,3.6-5,4.6-8.5l2.8,0.9l-0.4,1.3
			l-0.4,1.2c0.2,0.2,0.4,0.4,0.6,0.5c1,0.9,2.1,2,3.1,3.1c0.1,0.2,0.3,0.4,0.6,0.6l-1.9,2.7c-1.2-1.8-2.4-3.2-3.7-4.3
			C253.5,313,252.4,314.6,251.1,315.9z M251,294.8h7.8v9.9H251V294.8z M256.2,297.4h-2.6v4.6h2.6V297.4z"/>
		<path d="M295.2,284.3v3.2h-13.8V301h14.6v3.3h-14.6v11.7h-3.6v-11.7h-15V301h14.9v-13.4h-13.9v-3.2H295.2z M269,289.6
			c0.8,1.3,1.5,2.4,2.1,3.4l2.2,4l-3.2,1.8c-1.7-3.7-3.1-6.3-4.2-7.7L269,289.6z M290.1,290.5c0.2-0.3,0.4-0.6,0.6-1.1l2.9,1.8
			c-1.4,2.7-3.2,5.3-5.4,7.8l-3-2.1C287.2,294.8,288.8,292.7,290.1,290.5z"/>
		<path d="M314.1,283.8c-1.6,3-3.7,6.3-6.3,9.9c3.3,0,5.8,0,7.5,0h1.7c2.5,0,4.9-0.1,7.2-0.4l-2.9-2.9l-2.8-2.6l2.8-2.1
			c4,3.4,7.5,7,10.6,10.9l-2.8,2.7l-1.2-1.6l-0.9-1.2c-4.1,0.3-8.2,0.5-12.2,0.5c-7.5,0-12.7,0.1-15.7,0.2l-0.4-3.7l2.7,0.2h2
			c3-3.6,5.4-7.2,7-10.8L314.1,283.8z M301.9,300.7h26.8v15.3h-3.6v-2.1h-19.6v2.1h-3.6V300.7z M325.1,303.8h-19.6v6.9h19.6V303.8z"
			/>
	</g>
</g>
<g id="Logo">
	<g>
		<path fill="#FF0000" d="M69.9,179.5H47.5v-108h22.4V179.5z"/>
		<path fill="#FF0000" d="M174.1,169.9c-8.2,8.4-19.9,12.6-35.4,12.6c-15.4,0-27.2-4.2-35.4-12.6c-10.9-10.3-16.4-25.1-16.4-44.5
			c0-19.8,5.5-34.6,16.4-44.5c8.2-8.4,19.9-12.6,35.4-12.6c15.4,0,27.2,4.2,35.4,12.6c10.9,9.9,16.3,24.8,16.3,44.5
			C190.4,144.7,185,159.6,174.1,169.9z M160,153.5c5.2-6.6,7.9-16,7.9-28.1c0-12.1-2.6-21.5-7.9-28.1c-5.2-6.6-12.3-9.9-21.3-9.9
			c-8.9,0-16.1,3.3-21.4,9.9c-5.3,6.6-8,16-8,28.1c0,12.2,2.7,21.5,8,28.1c5.3,6.6,12.5,9.9,21.4,9.9
			C147.7,163.4,154.8,160.1,160,153.5z"/>
		<path fill="#FF0000" d="M207.5,179.5v-108h22.4v41.2h42V71.5h22.4v108h-22.4v-48.2h-42v48.2H207.5z"/>
	</g>
	<g>
		<path d="M47.8,199.5h10.3c3.5,0,6.2,1.3,8.2,3.8c1.7,2.3,2.6,5.2,2.6,8.7c0,2.7-0.5,5.2-1.5,7.4c-1.8,3.9-4.9,5.9-9.2,5.9H47.8
			V199.5z M57.4,222.3c1.2,0,2.1-0.1,2.9-0.4c1.3-0.5,2.4-1.3,3.3-2.6c0.7-1,1.2-2.4,1.5-4c0.2-1,0.3-1.9,0.3-2.7
			c0-3.2-0.6-5.7-1.9-7.5c-1.2-1.8-3.2-2.7-6-2.7h-6.1v19.8H57.4z"/>
		<path d="M84.8,207c1.2,0.6,2.2,1.4,2.8,2.4c0.6,0.9,1,2.1,1.3,3.3c0.2,0.9,0.3,2.2,0.3,4.1H75.5c0.1,1.9,0.5,3.5,1.3,4.6
			c0.8,1.2,2.1,1.7,3.9,1.7c1.6,0,2.9-0.5,3.9-1.6c0.5-0.6,0.9-1.4,1.2-2.2h3.1c-0.1,0.7-0.4,1.5-0.8,2.3c-0.5,0.8-1,1.5-1.5,2.1
			c-1,0.9-2.1,1.6-3.5,1.9c-0.8,0.2-1.6,0.3-2.6,0.3c-2.3,0-4.3-0.9-5.9-2.6c-1.6-1.7-2.4-4.1-2.4-7.2c0-3,0.8-5.5,2.4-7.4
			c1.6-1.9,3.8-2.8,6.4-2.8C82.3,206,83.6,206.4,84.8,207z M86,214.4c-0.1-1.4-0.4-2.5-0.9-3.3c-0.9-1.5-2.3-2.3-4.3-2.3
			c-1.4,0-2.6,0.5-3.6,1.6c-1,1-1.5,2.4-1.6,4H86z"/>
		<path d="M93.2,206.5h3.1v2.7c0.8-0.9,1.4-1.6,2-2c1-0.7,2.2-1.1,3.6-1.1c1.5,0,2.7,0.4,3.6,1.1c0.5,0.4,1,1,1.4,1.9
			c0.7-1,1.5-1.8,2.5-2.2c0.9-0.5,2-0.7,3.2-0.7c2.5,0,4.3,0.9,5.2,2.7c0.5,1,0.7,2.3,0.7,4v12.5h-3.3v-13.1c0-1.3-0.3-2.1-0.9-2.6
			c-0.6-0.5-1.4-0.7-2.3-0.7c-1.2,0-2.3,0.4-3.2,1.2c-0.9,0.8-1.3,2.2-1.3,4.2v11h-3.2V213c0-1.3-0.2-2.2-0.5-2.8
			c-0.5-0.9-1.4-1.3-2.7-1.3c-1.2,0-2.3,0.5-3.3,1.4c-1,0.9-1.5,2.6-1.5,5v10h-3.2V206.5z"/>
		<path d="M136.8,208.3c1.7,1.6,2.5,4,2.5,7.1c0,3-0.7,5.5-2.2,7.5c-1.5,2-3.7,3-6.8,3c-2.6,0-4.6-0.9-6.1-2.6
			c-1.5-1.8-2.3-4.1-2.3-7.1c0-3.2,0.8-5.7,2.4-7.6c1.6-1.9,3.7-2.8,6.4-2.8C133.1,205.9,135.2,206.7,136.8,208.3z M134.9,220.9
			c0.8-1.6,1.2-3.4,1.2-5.3c0-1.8-0.3-3.2-0.8-4.3c-0.9-1.7-2.4-2.6-4.6-2.6c-1.9,0-3.3,0.7-4.2,2.2c-0.9,1.5-1.3,3.3-1.3,5.3
			c0,2,0.4,3.7,1.3,5c0.9,1.3,2.2,2,4.1,2C132.7,223.2,134.1,222.4,134.9,220.9z"/>
		<path d="M155.7,207.5c1.3,1,2.1,2.8,2.4,5.3H155c-0.2-1.2-0.6-2.1-1.3-2.9c-0.7-0.8-1.7-1.2-3.2-1.2c-2,0-3.5,1-4.3,2.9
			c-0.6,1.3-0.8,2.9-0.8,4.7c0,1.9,0.4,3.5,1.2,4.8c0.8,1.3,2.1,1.9,3.8,1.9c1.3,0,2.4-0.4,3.1-1.2c0.8-0.8,1.3-1.9,1.6-3.3h3.1
			c-0.4,2.5-1.2,4.3-2.6,5.5c-1.4,1.2-3.2,1.7-5.4,1.7c-2.5,0-4.4-0.9-5.9-2.7c-1.5-1.8-2.2-4-2.2-6.7c0-3.3,0.8-5.9,2.4-7.7
			c1.6-1.8,3.7-2.8,6.1-2.8C152.6,205.9,154.3,206.4,155.7,207.5z"/>
		<path d="M161.3,206.5h3v3.3c0.2-0.6,0.8-1.4,1.8-2.3c1-0.9,2.1-1.4,3.3-1.4c0.1,0,0.2,0,0.3,0c0.1,0,0.4,0,0.7,0.1v3.3
			c-0.2,0-0.4-0.1-0.5-0.1c-0.2,0-0.3,0-0.5,0c-1.6,0-2.8,0.5-3.7,1.5c-0.9,1-1.3,2.2-1.3,3.5v10.8h-3.2V206.5z"/>
		<path d="M183.3,213.9c0.7-0.1,1.2-0.4,1.5-0.9c0.1-0.3,0.2-0.7,0.2-1.2c0-1.1-0.4-1.9-1.1-2.4c-0.8-0.5-1.9-0.7-3.3-0.7
			c-1.6,0-2.8,0.4-3.5,1.3c-0.4,0.5-0.6,1.2-0.8,2.2h-3c0.1-2.3,0.8-3.9,2.3-4.9c1.4-0.9,3.1-1.4,5-1.4c2.2,0,4,0.4,5.4,1.3
			c1.4,0.8,2.1,2.2,2.1,3.9v10.8c0,0.3,0.1,0.6,0.2,0.8c0.1,0.2,0.4,0.3,0.9,0.3c0.1,0,0.3,0,0.5,0c0.2,0,0.4,0,0.6-0.1v2.3
			c-0.5,0.1-0.9,0.2-1.1,0.3c-0.3,0-0.6,0.1-1.1,0.1c-1.1,0-1.9-0.4-2.4-1.2c-0.3-0.4-0.4-1-0.5-1.7c-0.6,0.8-1.6,1.6-2.8,2.2
			c-1.2,0.6-2.5,0.9-4,0.9c-1.7,0-3.2-0.5-4.3-1.6c-1.1-1.1-1.7-2.4-1.7-4c0-1.7,0.5-3.1,1.6-4.1c1.1-1,2.5-1.6,4.3-1.8L183.3,213.9
			z M176.6,222.4c0.7,0.5,1.5,0.8,2.4,0.8c1.1,0,2.2-0.3,3.2-0.8c1.8-0.9,2.6-2.3,2.6-4.2v-2.5c-0.4,0.2-0.9,0.5-1.5,0.6
			c-0.6,0.2-1.2,0.3-1.8,0.4l-1.9,0.2c-1.1,0.2-2,0.4-2.6,0.7c-1,0.5-1.5,1.4-1.5,2.6C175.6,221.2,176,221.9,176.6,222.4z"/>
		<path d="M193.9,201.2h3.2v5.3h3v2.6h-3v12.3c0,0.7,0.2,1.1,0.7,1.3c0.2,0.1,0.7,0.2,1.2,0.2c0.2,0,0.3,0,0.5,0
			c0.2,0,0.4,0,0.6-0.1v2.5c-0.4,0.1-0.7,0.2-1.1,0.2c-0.4,0-0.8,0.1-1.3,0.1c-1.5,0-2.5-0.4-3-1.1c-0.5-0.8-0.8-1.7-0.8-2.9V209
			h-2.5v-2.6h2.5V201.2z"/>
		<path d="M203.2,199.5h3.2v3.6h-3.2V199.5z M203.2,206.6h3.2v18.7h-3.2V206.6z"/>
		<path d="M209.8,222.8l11.2-13.5h-10.4v-2.8h14.6v2.6l-11.1,13.4h11.4v2.8h-15.8V222.8z"/>
		<path d="M229.2,199.5h3.2v3.6h-3.2V199.5z M229.2,206.6h3.2v18.7h-3.2V206.6z"/>
		<path d="M237.2,206.5h3v2.7c0.9-1.1,1.8-1.9,2.8-2.4c1-0.5,2.1-0.7,3.3-0.7c2.7,0,4.5,0.9,5.4,2.8c0.5,1,0.8,2.5,0.8,4.4v12.1
			h-3.2v-11.9c0-1.1-0.2-2.1-0.5-2.8c-0.6-1.2-1.6-1.8-3.1-1.8c-0.8,0-1.4,0.1-1.8,0.2c-0.9,0.3-1.6,0.8-2.3,1.5
			c-0.5,0.6-0.9,1.3-1,1.9c-0.2,0.7-0.2,1.6-0.2,2.8v9.9h-3.2V206.5z"/>
		<path d="M267.7,207.2c0.6,0.4,1.2,1,1.8,1.8v-2.4h2.9v17.1c0,2.4-0.4,4.3-1.1,5.7c-1.3,2.6-3.8,3.8-7.4,3.8c-2,0-3.7-0.5-5.1-1.4
			c-1.4-0.9-2.1-2.3-2.3-4.3h3.2c0.2,0.8,0.5,1.5,0.9,2c0.7,0.7,1.8,1.1,3.4,1.1c2.4,0,4-0.9,4.7-2.6c0.4-1,0.6-2.8,0.6-5.4
			c-0.6,1-1.4,1.7-2.3,2.1c-0.9,0.5-2.1,0.7-3.5,0.7c-2,0-3.8-0.7-5.3-2.2c-1.5-1.4-2.3-3.8-2.3-7.2c0-3.2,0.8-5.6,2.3-7.4
			c1.5-1.8,3.4-2.7,5.6-2.7C265.3,206.1,266.6,206.5,267.7,207.2z M268.1,210.6c-1-1.1-2.2-1.7-3.7-1.7c-2.2,0-3.7,1-4.5,3.1
			c-0.4,1.1-0.6,2.6-0.6,4.4c0,2.1,0.4,3.7,1.3,4.8c0.9,1.1,2,1.7,3.5,1.7c2.3,0,3.9-1,4.8-3.1c0.5-1.2,0.8-2.5,0.8-4.1
			C269.5,213.5,269.1,211.7,268.1,210.6z"/>
	</g>
	<g>
		<path d="M47.9,237.5h11.6c2.3,0,4.1,0.6,5.5,1.9c1.4,1.3,2.1,3.1,2.1,5.5c0,2-0.6,3.8-1.9,5.3c-1.3,1.5-3.2,2.2-5.8,2.2h-8.1v10.9
			h-3.5V237.5z M61.5,241c-0.8-0.4-1.8-0.5-3.2-0.5h-6.9v8.9h6.9c1.6,0,2.8-0.3,3.8-1c1-0.7,1.5-1.8,1.5-3.5
			C63.6,243,62.9,241.7,61.5,241z"/>
		<path d="M82.8,245c1.2,0.6,2.2,1.4,2.8,2.4c0.6,0.9,1,2.1,1.3,3.3c0.2,0.9,0.3,2.2,0.3,4.1H73.5c0.1,1.9,0.5,3.5,1.3,4.6
			c0.8,1.2,2.1,1.7,3.9,1.7c1.6,0,2.9-0.5,3.9-1.6c0.5-0.6,0.9-1.4,1.2-2.2H87c-0.1,0.7-0.4,1.5-0.8,2.3c-0.5,0.8-1,1.5-1.5,2.1
			c-1,0.9-2.1,1.6-3.5,1.9c-0.8,0.2-1.6,0.3-2.6,0.3c-2.3,0-4.3-0.9-5.9-2.6c-1.6-1.7-2.4-4.1-2.4-7.2c0-3,0.8-5.5,2.4-7.4
			s3.8-2.8,6.4-2.8C80.3,244.1,81.6,244.4,82.8,245z M84,252.4c-0.1-1.4-0.4-2.5-0.9-3.3c-0.9-1.5-2.3-2.3-4.3-2.3
			c-1.4,0-2.6,0.5-3.6,1.6c-1,1-1.5,2.4-1.6,4H84z"/>
		<path d="M91.3,244.5h3v3.3c0.2-0.6,0.8-1.4,1.8-2.3c1-0.9,2.1-1.4,3.3-1.4c0.1,0,0.2,0,0.3,0c0.1,0,0.4,0,0.7,0.1v3.3
			c-0.2,0-0.4-0.1-0.5-0.1c-0.2,0-0.3,0-0.5,0c-1.6,0-2.8,0.5-3.7,1.5c-0.9,1-1.3,2.2-1.3,3.5v10.8h-3.2V244.5z"/>
		<path d="M105.1,257.4c0.1,1.1,0.4,1.9,0.8,2.4c0.8,1,2.2,1.5,4.2,1.5c1.2,0,2.2-0.3,3.2-0.8c0.9-0.5,1.4-1.3,1.4-2.4
			c0-0.8-0.4-1.4-1.1-1.8c-0.5-0.3-1.4-0.6-2.8-0.9l-2.6-0.6c-1.6-0.4-2.8-0.8-3.6-1.3c-1.4-0.9-2.1-2-2.1-3.6c0-1.8,0.6-3.2,2-4.3
			c1.3-1.1,3-1.7,5.2-1.7c2.9,0,4.9,0.8,6.2,2.5c0.8,1.1,1.2,2.2,1.2,3.4h-3c-0.1-0.7-0.3-1.4-0.8-1.9c-0.7-0.8-2-1.2-3.9-1.2
			c-1.2,0-2.2,0.2-2.8,0.7c-0.6,0.5-0.9,1.1-0.9,1.8c0,0.8,0.4,1.5,1.2,2c0.5,0.3,1.2,0.5,2.1,0.8l2.1,0.5c2.3,0.6,3.9,1.1,4.7,1.6
			c1.2,0.8,1.8,2.1,1.8,3.8c0,1.7-0.6,3.1-1.9,4.3c-1.3,1.2-3.2,1.8-5.9,1.8c-2.8,0-4.8-0.6-6-1.9c-1.2-1.3-1.8-2.8-1.9-4.7H105.1z"
			/>
		<path d="M134.9,246.4c1.7,1.6,2.5,4,2.5,7.1c0,3-0.7,5.5-2.2,7.5c-1.5,2-3.7,3-6.8,3c-2.6,0-4.6-0.9-6.1-2.6
			c-1.5-1.8-2.3-4.1-2.3-7.1c0-3.2,0.8-5.7,2.4-7.6c1.6-1.9,3.7-2.8,6.4-2.8C131.2,243.9,133.2,244.7,134.9,246.4z M132.9,258.9
			c0.8-1.6,1.2-3.4,1.2-5.3c0-1.8-0.3-3.2-0.8-4.3c-0.9-1.7-2.4-2.6-4.6-2.6c-1.9,0-3.3,0.7-4.2,2.2c-0.9,1.5-1.3,3.3-1.3,5.3
			c0,2,0.4,3.7,1.3,5c0.9,1.3,2.2,2,4.1,2C130.7,261.2,132.1,260.5,132.9,258.9z"/>
		<path d="M141.2,244.5h3v2.7c0.9-1.1,1.8-1.9,2.8-2.4c1-0.5,2.1-0.7,3.3-0.7c2.7,0,4.5,0.9,5.4,2.8c0.5,1,0.8,2.5,0.8,4.4v12.1
			h-3.2v-11.9c0-1.1-0.2-2.1-0.5-2.8c-0.6-1.2-1.6-1.8-3.1-1.8c-0.8,0-1.4,0.1-1.8,0.2c-0.9,0.3-1.6,0.8-2.3,1.5
			c-0.5,0.6-0.9,1.3-1,1.9c-0.2,0.7-0.2,1.6-0.2,2.8v9.9h-3.2V244.5z"/>
		<path d="M171.3,251.9c0.7-0.1,1.2-0.4,1.5-0.9c0.1-0.3,0.2-0.7,0.2-1.2c0-1.1-0.4-1.9-1.1-2.4c-0.8-0.5-1.9-0.7-3.3-0.7
			c-1.6,0-2.8,0.4-3.5,1.3c-0.4,0.5-0.6,1.2-0.8,2.2h-3c0.1-2.3,0.8-3.9,2.3-4.9c1.4-0.9,3.1-1.4,5-1.4c2.2,0,4,0.4,5.4,1.3
			c1.4,0.8,2.1,2.2,2.1,3.9v10.8c0,0.3,0.1,0.6,0.2,0.8c0.1,0.2,0.4,0.3,0.9,0.3c0.1,0,0.3,0,0.5,0c0.2,0,0.4,0,0.6-0.1v2.3
			c-0.5,0.1-0.9,0.2-1.1,0.3c-0.3,0-0.6,0.1-1.1,0.1c-1.1,0-1.9-0.4-2.4-1.2c-0.3-0.4-0.4-1-0.5-1.7c-0.6,0.8-1.6,1.6-2.8,2.2
			c-1.2,0.6-2.5,0.9-4,0.9c-1.7,0-3.2-0.5-4.3-1.6c-1.1-1.1-1.7-2.4-1.7-4c0-1.7,0.5-3.1,1.6-4.1c1.1-1,2.5-1.6,4.3-1.8L171.3,251.9
			z M164.7,260.5c0.7,0.5,1.5,0.8,2.4,0.8c1.1,0,2.2-0.3,3.2-0.8c1.8-0.9,2.6-2.3,2.6-4.2v-2.5c-0.4,0.2-0.9,0.5-1.5,0.6
			c-0.6,0.2-1.2,0.3-1.8,0.4l-1.9,0.2c-1.1,0.2-2,0.4-2.6,0.7c-1,0.5-1.5,1.4-1.5,2.6C163.7,259.2,164,259.9,164.7,260.5z"/>
		<path d="M181.4,237.5h3.2v25.8h-3.2V237.5z"/>
		<path d="M200,237.5h18.7v3.2h-15.3v7.8h14.2v3h-14.2v8.8H219v3.1h-19V237.5z"/>
		<path d="M221.5,244.5h4.1l4.3,6.6l4.4-6.6l3.8,0.1l-6.3,9.1l6.6,9.7h-4l-4.7-7.1l-4.5,7.1h-4l6.6-9.7L221.5,244.5z"/>
		<path d="M241,244.6h3.1v2.5c0.6-0.9,1.3-1.5,2.1-2c1.1-0.7,2.3-1.1,3.8-1.1c2.1,0,4,0.8,5.4,2.5c1.5,1.6,2.2,4,2.2,7
			c0,4.1-1.1,7-3.2,8.8c-1.4,1.1-3,1.7-4.8,1.7c-1.4,0-2.6-0.3-3.6-0.9c-0.6-0.4-1.2-1-1.9-1.8v9.6H241V244.6z M252.9,259.3
			c1-1.2,1.5-3.1,1.5-5.5c0-1.5-0.2-2.8-0.7-3.9c-0.8-2.1-2.3-3.1-4.5-3.1c-2.2,0-3.7,1.1-4.5,3.3c-0.4,1.2-0.7,2.7-0.7,4.5
			c0,1.5,0.2,2.7,0.7,3.7c0.8,1.9,2.3,2.9,4.5,2.9C250.7,261.2,251.9,260.6,252.9,259.3z"/>
		<path d="M272.9,245c1.2,0.6,2.2,1.4,2.8,2.4c0.6,0.9,1,2.1,1.3,3.3c0.2,0.9,0.3,2.2,0.3,4.1h-13.7c0.1,1.9,0.5,3.5,1.3,4.6
			c0.8,1.2,2.1,1.7,3.9,1.7c1.6,0,2.9-0.5,3.9-1.6c0.5-0.6,0.9-1.4,1.2-2.2h3.1c-0.1,0.7-0.4,1.5-0.8,2.3c-0.5,0.8-1,1.5-1.5,2.1
			c-1,0.9-2.1,1.6-3.5,1.9c-0.8,0.2-1.6,0.3-2.6,0.3c-2.3,0-4.3-0.9-5.9-2.6c-1.6-1.7-2.4-4.1-2.4-7.2c0-3,0.8-5.5,2.4-7.4
			s3.8-2.8,6.4-2.8C270.4,244.1,271.7,244.4,272.9,245z M274.1,252.4c-0.1-1.4-0.4-2.5-0.9-3.3c-0.9-1.5-2.3-2.3-4.3-2.3
			c-1.4,0-2.6,0.5-3.6,1.6c-1,1-1.5,2.4-1.6,4H274.1z"/>
		<path d="M281.4,244.5h3v3.3c0.2-0.6,0.8-1.4,1.8-2.3c1-0.9,2.1-1.4,3.3-1.4c0.1,0,0.2,0,0.3,0c0.1,0,0.4,0,0.7,0.1v3.3
			c-0.2,0-0.4-0.1-0.5-0.1c-0.2,0-0.3,0-0.5,0c-1.6,0-2.8,0.5-3.7,1.5c-0.9,1-1.3,2.2-1.3,3.5v10.8h-3.2V244.5z"/>
		<path d="M293.3,237.5h3.2v3.6h-3.2V237.5z M293.3,244.6h3.2v18.7h-3.2V244.6z"/>
		<path d="M312.9,245c1.2,0.6,2.2,1.4,2.8,2.4c0.6,0.9,1,2.1,1.3,3.3c0.2,0.9,0.3,2.2,0.3,4.1h-13.7c0.1,1.9,0.5,3.5,1.3,4.6
			c0.8,1.2,2.1,1.7,3.9,1.7c1.6,0,2.9-0.5,3.9-1.6c0.5-0.6,0.9-1.4,1.2-2.2h3.1c-0.1,0.7-0.4,1.5-0.8,2.3c-0.5,0.8-1,1.5-1.5,2.1
			c-1,0.9-2.1,1.6-3.5,1.9c-0.8,0.2-1.6,0.3-2.6,0.3c-2.3,0-4.3-0.9-5.9-2.6c-1.6-1.7-2.4-4.1-2.4-7.2c0-3,0.8-5.5,2.4-7.4
			c1.6-1.9,3.8-2.8,6.4-2.8C310.4,244.1,311.7,244.4,312.9,245z M314.1,252.4c-0.1-1.4-0.4-2.5-0.9-3.3c-0.9-1.5-2.3-2.3-4.3-2.3
			c-1.4,0-2.6,0.5-3.6,1.6c-1,1-1.5,2.4-1.6,4H314.1z"/>
		<path d="M321.3,244.5h3v2.7c0.9-1.1,1.8-1.9,2.8-2.4c1-0.5,2.1-0.7,3.3-0.7c2.7,0,4.5,0.9,5.4,2.8c0.5,1,0.8,2.5,0.8,4.4v12.1
			h-3.2v-11.9c0-1.1-0.2-2.1-0.5-2.8c-0.6-1.2-1.6-1.8-3.1-1.8c-0.8,0-1.4,0.1-1.8,0.2c-0.9,0.3-1.6,0.8-2.3,1.5
			c-0.5,0.6-0.9,1.3-1,1.9c-0.2,0.7-0.2,1.6-0.2,2.8v9.9h-3.2V244.5z"/>
		<path d="M353.8,245.5c1.3,1,2.1,2.8,2.4,5.3h-3.1c-0.2-1.2-0.6-2.1-1.3-2.9c-0.7-0.8-1.7-1.2-3.2-1.2c-2,0-3.5,1-4.3,2.9
			c-0.6,1.3-0.8,2.9-0.8,4.7c0,1.9,0.4,3.5,1.2,4.8c0.8,1.3,2.1,1.9,3.8,1.9c1.3,0,2.4-0.4,3.1-1.2c0.8-0.8,1.3-1.9,1.6-3.3h3.1
			c-0.4,2.5-1.2,4.3-2.6,5.5c-1.4,1.2-3.2,1.7-5.4,1.7c-2.5,0-4.4-0.9-5.9-2.7c-1.5-1.8-2.2-4-2.2-6.7c0-3.3,0.8-5.9,2.4-7.7
			c1.6-1.8,3.7-2.8,6.1-2.8C350.7,243.9,352.5,244.4,353.8,245.5z"/>
		<path d="M371,245c1.2,0.6,2.2,1.4,2.8,2.4c0.6,0.9,1,2.1,1.3,3.3c0.2,0.9,0.3,2.2,0.3,4.1h-13.7c0.1,1.9,0.5,3.5,1.3,4.6
			c0.8,1.2,2.1,1.7,3.9,1.7c1.6,0,2.9-0.5,3.9-1.6c0.5-0.6,0.9-1.4,1.2-2.2h3.1c-0.1,0.7-0.4,1.5-0.8,2.3c-0.5,0.8-1,1.5-1.5,2.1
			c-1,0.9-2.1,1.6-3.5,1.9c-0.8,0.2-1.6,0.3-2.6,0.3c-2.3,0-4.3-0.9-5.9-2.6c-1.6-1.7-2.4-4.1-2.4-7.2c0-3,0.8-5.5,2.4-7.4
			s3.8-2.8,6.4-2.8C368.5,244.1,369.7,244.4,371,245z M372.1,252.4c-0.1-1.4-0.4-2.5-0.9-3.3c-0.9-1.5-2.3-2.3-4.3-2.3
			c-1.4,0-2.6,0.5-3.6,1.6c-1,1-1.5,2.4-1.6,4H372.1z"/>
	</g>
</g>
<g id="Layer_2">
</g>
</svg>
